<svg width="29" height="35" viewBox="0 0 29 35"  xmlns="http://www.w3.org/2000/svg">
<path d="M3.18833 11.6622L1.70191 10.1904C0.894381 9.39114 0.894381 8.09017 1.70191 7.29042C2.50945 6.49094 3.82351 6.49094 4.63104 7.29042L6.21806 8.86162C7.87358 7.72007 9.7608 6.92993 11.7381 6.55075V4.51172H10.3571C9.97576 4.51172 9.66667 4.2057 9.66667 3.82812V2.05078C9.66667 0.919914 10.5958 0 11.7381 0H17.2619C18.4042 0 19.3333 0.919914 19.3333 2.05078V3.82812C19.3333 4.2057 19.0242 4.51172 18.6429 4.51172H17.2619V6.55075C19.2389 6.92966 21.1264 7.72007 22.7819 8.86162L24.369 7.29042C25.1762 6.49094 26.4903 6.49094 27.2981 7.29042C28.1056 8.0899 28.1056 9.39087 27.2981 10.1904L25.8117 11.6622C27.872 14.203 29 17.3678 29 20.6445C29 28.5601 22.4952 35 14.5 35C6.50477 35 -1.90735e-06 28.5601 -1.90735e-06 20.6445C-1.90735e-06 17.3678 1.12796 14.203 3.18833 11.6622ZM3.65467 8.25706C3.38522 7.99057 2.94747 7.99084 2.67829 8.25706C2.40938 8.52356 2.40938 8.95721 2.67829 9.22371L4.10509 10.636C4.4266 10.3092 4.76374 9.99756 5.11438 9.70249L3.65467 8.25706ZM17.9524 2.05078C17.9524 1.67374 17.6427 1.36719 17.2619 1.36719H11.7381C11.3573 1.36719 11.0476 1.67374 11.0476 2.05078V3.14453H17.9524V2.05078ZM13.119 4.51172V6.35368C14.0342 6.26877 14.9655 6.26877 15.881 6.35368V4.51172H13.119ZM26.3217 8.25706C26.0525 7.99084 25.6145 7.99057 25.3453 8.25706L23.8856 9.70249C24.2363 9.99756 24.5734 10.3092 24.8949 10.636L26.3217 9.22371C26.5906 8.95721 26.5906 8.52356 26.3217 8.25706ZM14.5 33.6328C21.7338 33.6328 27.619 27.8062 27.619 20.6445C27.619 17.4853 26.4606 14.4415 24.3574 12.0732C23.778 11.4208 23.1315 10.8248 22.4359 10.3009C20.6927 8.98766 18.6294 8.12328 16.4689 7.80098C15.8224 7.70512 15.16 7.65625 14.5 7.65625C13.84 7.65625 13.1776 7.70512 12.5313 7.80098C10.3706 8.12328 8.30729 8.98766 6.56384 10.3009C5.86851 10.8248 5.22199 11.4208 4.64264 12.0732C2.53939 14.4415 1.38095 17.4853 1.38095 20.6445C1.38095 27.8062 7.26618 33.6328 14.5 33.6328Z"/>
<path d="M14.4999 22.6953C13.3576 22.6953 12.4284 21.7754 12.4284 20.6445C12.4284 19.7535 13.0056 18.9935 13.8094 18.7112V13.8086C13.8094 13.431 14.1185 13.125 14.4999 13.125C14.8812 13.125 15.1903 13.431 15.1903 13.8086V18.7112C15.9941 18.9935 16.5713 19.7535 16.5713 20.6445C16.5713 21.7754 15.6421 22.6953 14.4999 22.6953ZM14.4999 19.9609C14.119 19.9609 13.8094 20.2675 13.8094 20.6445C13.8094 21.0216 14.119 21.3281 14.4999 21.3281C14.8807 21.3281 15.1903 21.0216 15.1903 20.6445C15.1903 20.2675 14.8807 19.9609 14.4999 19.9609Z"/>
<path d="M7.14482 13.4326C7.15561 13.42 7.1664 13.4075 7.17854 13.3957C7.19148 13.3826 7.20524 13.3709 7.21899 13.3591C8.43596 12.1671 9.93936 11.2851 11.5709 10.8082C11.9369 10.7014 12.3207 10.9081 12.4286 11.2702C12.5365 11.6323 12.3277 12.0125 11.962 12.1193C10.7531 12.4729 9.62541 13.0838 8.66414 13.8996L9.12994 14.3608C9.39939 14.6278 9.39939 15.0607 9.12994 15.3277C8.99508 15.4612 8.81842 15.528 8.64148 15.528C8.46482 15.528 8.28815 15.4612 8.15329 15.3277L7.68641 14.8655C6.43708 16.3037 5.69509 18.0741 5.55052 19.9609H6.21457C6.59595 19.9609 6.90504 20.2672 6.90504 20.6445C6.90504 21.0221 6.59595 21.3281 6.21457 21.3281H5.55052C5.69509 23.2152 6.43708 24.9853 7.68641 26.4235L8.15329 25.9613C8.42301 25.6945 8.86022 25.6945 9.12994 25.9613C9.39966 26.2283 9.39966 26.6612 9.12994 26.9282L8.66306 27.3904C10.1158 28.6273 11.904 29.3619 13.8098 29.5053V28.8476C13.8098 28.47 14.1189 28.164 14.5003 28.164C14.8817 28.164 15.1908 28.47 15.1908 28.8476V29.505C17.0966 29.3619 18.8848 28.6273 20.3375 27.3904L19.8706 26.9282C19.6009 26.6612 19.6009 26.2283 19.8706 25.9613C20.1403 25.6945 20.5775 25.6945 20.8473 25.9613L21.3141 26.4235C22.5635 24.9853 23.3055 23.2149 23.45 21.3281H22.786C22.4046 21.3281 22.0955 21.0221 22.0955 20.6445C22.0955 20.2669 22.4046 19.9609 22.786 19.9609H23.45C23.3055 18.0741 22.5635 16.3037 21.3141 14.8655L20.8473 15.3277C20.7124 15.4612 20.5357 15.528 20.3591 15.528C20.1821 15.528 20.0055 15.4612 19.8706 15.3277C19.6012 15.0607 19.6012 14.6278 19.8706 14.3608L20.3364 13.8996C19.3751 13.0836 18.2475 12.4729 17.0386 12.1193C16.6729 12.0125 16.4641 11.6323 16.572 11.2702C16.6799 10.9081 17.0634 10.7017 17.4297 10.8082C19.0609 11.2849 20.5638 12.1666 21.7805 13.3581C21.7948 13.3701 21.8088 13.3824 21.822 13.3955C21.8339 13.4072 21.8444 13.4195 21.8552 13.4318C23.7915 15.3667 24.8574 17.9259 24.8574 20.6445C24.8574 23.3628 23.7915 25.9218 21.8557 27.8564C21.8449 27.869 21.8342 27.8815 21.822 27.8933C21.8102 27.9053 21.7977 27.9157 21.7853 27.9264C19.831 29.8431 17.2463 30.8984 14.5003 30.8984C11.7546 30.8984 9.16986 29.8434 7.21576 27.9269C7.20308 27.916 7.1904 27.9053 7.17854 27.8933C7.16667 27.8818 7.15615 27.8692 7.14536 27.8572C5.20906 25.9223 4.14314 23.3631 4.14314 20.6445C4.14314 17.9261 5.20906 15.3672 7.14482 13.4326Z"/>
<path d="M14.5 11.7578C14.1188 11.7578 13.8095 11.4515 13.8095 11.0742C13.8095 10.6969 14.1188 10.3906 14.5 10.3906C14.8811 10.3906 15.1904 10.6969 15.1904 11.0742C15.1904 11.4515 14.8811 11.7578 14.5 11.7578Z"/>
</svg>
